<svg version="1.1" id="Layer_1" xmlns="http://www.w3.org/2000/svg" xmlns:xlink="http://www.w3.org/1999/xlink" x="0px" y="0px"
	 width="100%" viewBox="0 0 1536 672" enable-background="new 0 0 1536 672" xml:space="preserve">
<path fill="#FDFEFE" opacity="1.000000" stroke="none" 
	d="
M1126.000000,673.000000 
	C750.709045,673.000000 375.918060,673.000000 1.063540,673.000000 
	C1.063540,449.067688 1.063540,225.135361 1.063540,1.101512 
	C513.000000,1.101512 1025.000000,1.101512 1536.976318,1.101512 
	C1536.976318,225.082230 1536.976318,449.041107 1536.976318,673.000000 
	C1400.135132,673.000000 1263.317505,673.000000 1126.000000,673.000000 
M948.710632,540.922546 
	C949.078979,540.189697 949.447327,539.456848 950.166443,538.178833 
	C951.164551,537.134277 952.162720,536.089661 953.863037,534.850403 
	C955.494812,531.970215 957.185425,529.120605 958.711609,526.185547 
	C959.039795,525.554382 958.773987,524.614319 958.903137,523.929321 
	C958.903137,523.929321 958.821411,523.785278 959.719482,523.926880 
	C963.737061,524.094849 967.961060,524.843872 969.618652,519.512207 
	C969.825256,518.847717 971.168457,518.536499 972.791077,518.001770 
	C973.867920,518.026855 974.944702,518.051941 976.483521,518.564453 
	C981.419312,516.717651 978.065674,512.740906 978.818054,509.815582 
	C978.818054,509.815582 978.789307,509.736816 979.527527,509.850311 
	C982.815063,507.987274 986.409546,506.418549 986.983032,501.205444 
	C987.020020,500.129059 987.057007,499.052673 987.609314,497.532288 
	C987.680664,496.634491 987.751953,495.736664 987.970642,494.997406 
	C987.970642,494.997406 987.839539,494.825653 988.572815,494.934082 
	C989.731384,493.960388 990.890015,492.986664 991.989563,491.159943 
	C992.028625,489.452057 992.067688,487.744202 992.789429,485.940460 
	C995.756897,482.821411 998.724426,479.702332 1001.751648,475.919495 
	C1002.695435,475.174652 1003.639221,474.429779 1005.414917,473.827209 
	C1006.263916,472.843353 1007.941589,471.736084 1007.816650,470.897278 
	C1007.310730,467.500092 1008.931030,465.237518 1011.000549,463.001282 
	C1011.000549,463.001282 1011.052979,463.031494 1011.831909,462.839539 
	C1011.791687,458.208069 1011.751465,453.576569 1011.695374,448.269073 
	C1011.463623,447.178894 1011.231812,446.088745 1010.914673,444.290924 
	C1009.449280,443.473969 1007.983826,442.657013 1006.577454,441.087433 
	C1006.583252,440.081482 1006.588989,439.075562 1007.332947,437.589630 
	C1007.107727,433.039215 1006.882507,428.488770 1006.663391,423.090393 
	C1006.483704,419.715088 1006.303955,416.339783 1006.589783,412.538452 
	C1004.402710,409.438110 1002.312561,406.361511 1002.405212,402.244965 
	C1002.421387,401.527496 999.960999,399.957214 999.708069,400.153229 
	C996.980774,402.267059 994.466614,404.655975 991.924438,407.822296 
	C991.855652,409.521698 991.786865,411.221130 991.062439,413.060425 
	C989.985352,414.683655 985.449463,412.660156 986.959717,417.851013 
	C986.901306,419.875763 986.842896,421.900513 986.049683,423.976501 
	C978.812012,424.968536 981.627991,430.720917 980.087463,434.964325 
	C978.387451,434.959808 976.687439,434.955292 974.566833,434.440125 
	C971.267639,433.738190 971.401367,436.105377 971.026733,438.084229 
	C971.026733,438.084229 971.196106,438.218445 970.487732,438.128937 
	C969.649841,439.073029 968.811951,440.017120 968.001831,440.998108 
	C968.001831,440.998108 967.961853,440.975708 967.301880,441.075104 
	C966.952087,441.787231 966.602356,442.499390 966.126465,443.124023 
	C966.126465,443.124023 966.208435,443.253693 965.519714,443.134674 
	C964.637878,444.077698 963.756042,445.020721 962.899292,446.767639 
	C962.655945,448.877655 962.412598,450.987701 961.385803,453.045197 
	C960.021973,454.165344 958.658142,455.285522 957.346130,456.914429 
	C957.344360,457.255157 957.342590,457.595886 956.638550,458.416840 
	C955.765869,461.916077 954.893250,465.415314 953.343933,468.995819 
	C952.890625,468.975891 952.437256,468.955963 951.582947,468.435211 
	C950.726013,468.962524 949.869141,469.489838 949.000000,470.000000 
	C949.000000,470.000000 949.016785,470.011749 948.334290,470.087555 
	C945.567505,473.073914 942.800720,476.060242 940.000000,479.001068 
	C940.000000,479.001068 940.045715,479.034576 939.335022,479.103210 
	C938.990845,479.871399 938.646729,480.639618 938.171448,482.048187 
	C937.145691,482.716583 936.119934,483.384979 934.365173,484.110748 
	C934.211304,485.732452 934.057434,487.354156 933.988647,489.653687 
	C933.743042,490.492004 933.497375,491.330322 932.518738,492.061432 
	C931.629822,493.027069 930.740906,493.992676 929.913269,495.811493 
	C929.860779,497.517090 929.808289,499.222687 929.110107,501.050018 
	C928.078735,502.040833 927.047363,503.031647 926.000000,504.000000 
	C926.000000,504.000000 926.022339,504.015320 925.263428,504.124084 
	C923.479614,504.752869 921.653687,506.007172 919.920044,505.890442 
	C915.152710,505.569458 912.978821,507.888855 912.018982,512.012207 
	C912.018982,512.012207 912.160278,512.163635 911.457642,512.124634 
	C909.722961,513.847961 907.851135,515.455811 906.281494,517.318176 
	C902.778564,521.474609 899.915100,526.519043 893.079590,525.167114 
	C892.613586,525.074951 891.834351,526.566589 891.103394,527.870544 
	C890.980164,528.220947 890.856873,528.571289 890.068542,529.049744 
	C887.459717,530.303406 884.486328,531.264771 885.053406,534.990112 
	C885.053406,534.990112 885.153748,535.167786 884.256653,535.049072 
	C881.586914,536.098206 876.819275,532.278625 876.310791,538.982239 
	C876.200745,539.318420 876.090759,539.654541 875.247803,539.986877 
	C873.908325,541.391418 872.568787,542.795898 871.060364,544.064453 
	C871.060364,544.064453 871.200562,544.229919 870.490356,544.137573 
	C869.661255,545.094055 868.832153,546.050598 867.609131,547.285583 
	C867.359314,547.490601 867.135742,547.721069 866.268127,548.049133 
	C865.514404,549.038269 864.760681,550.027344 863.636292,551.311279 
	C863.398560,551.520264 863.179321,551.747131 862.247009,552.101868 
	C859.802673,553.066589 857.430054,554.457031 854.895203,554.883728 
	C851.997559,555.371399 848.939575,554.822998 845.983704,555.087463 
	C844.695618,555.202759 843.455566,556.163513 842.252258,556.843872 
	C840.478394,557.846924 838.860840,559.548035 836.990784,559.869324 
	C833.385254,560.488770 827.081970,564.700317 827.317932,568.172546 
	C827.742004,574.412109 824.305176,574.393738 819.982605,574.045410 
	C818.173706,573.899597 816.323303,574.194397 814.526611,573.987061 
	C810.682556,573.543457 808.547485,575.169434 807.019470,578.972290 
	C804.050293,578.977051 801.067200,578.815735 798.118225,579.062195 
	C796.805359,579.171875 794.682739,579.854675 794.442017,580.705627 
	C793.529175,583.932983 791.317322,583.876648 788.721069,584.111389 
	C786.943115,584.272156 785.237183,585.393616 783.534119,586.163208 
	C782.277039,586.731384 781.134094,587.792786 779.840393,587.995056 
	C775.629028,588.653748 773.039307,590.904541 771.545044,595.414917 
	C771.251343,595.956665 770.957703,596.498474 769.990356,597.108093 
	C768.419617,598.244263 766.604309,599.157837 765.327209,600.561157 
	C762.334717,603.849487 758.929382,603.984314 755.881348,600.890991 
	C754.099976,599.083191 751.967834,597.621094 749.561096,595.781189 
	C749.291443,595.581238 749.103882,595.321899 748.935120,594.273315 
	C747.030762,592.134888 747.470520,588.419495 743.061890,587.835388 
	C738.356689,587.211975 733.856934,585.026489 729.277161,583.493896 
	C728.995667,583.399597 728.644348,583.084351 728.586365,582.815613 
	C727.576050,578.136597 723.888062,579.196838 720.684692,578.981689 
	C717.914185,578.795593 715.166138,578.274109 711.922180,577.316711 
	C710.275208,576.811829 708.628296,576.306946 706.350159,575.284180 
	C705.200439,575.188171 704.050537,575.006470 702.901123,575.009583 
	C693.317444,575.035461 694.051636,575.715820 693.954163,566.159058 
	C693.933472,564.124695 693.950012,561.389221 692.743591,560.199463 
	C689.165405,556.670471 685.178894,553.903748 679.359436,554.835999 
	C675.479858,555.457520 670.725281,556.504578 668.348389,551.138794 
	C668.014099,550.384155 666.011108,550.109436 664.765747,550.069397 
	C661.786743,549.973511 658.798889,550.149963 655.929138,550.062439 
	C655.929138,550.062439 655.782471,550.186279 655.928650,549.284729 
	C655.702271,546.869873 656.368591,543.163452 655.085938,542.276917 
	C650.854065,539.351929 647.430481,533.720764 640.955444,535.999939 
	C640.955444,535.999939 640.812134,536.171204 640.932129,535.443970 
	C640.311157,534.615479 639.690247,533.787048 639.004883,532.995483 
	C639.004883,532.995483 639.042847,532.931641 638.962036,532.229065 
	C637.078613,527.223694 633.558228,525.153809 628.213684,525.973633 
	C626.117676,526.295105 623.950073,526.149902 621.919006,526.034729 
	C621.919006,526.034729 621.783386,526.195129 621.862427,525.522095 
	C621.260132,525.003113 620.657898,524.484131 620.001709,523.999512 
	C620.001709,523.999512 620.035034,523.944946 619.961914,523.256592 
	C618.850342,521.632507 617.991699,519.735840 616.584656,518.430298 
	C609.519470,511.874908 604.187805,502.939636 594.048584,501.341431 
	C592.996399,498.701080 592.048523,496.322327 591.019287,493.977478 
	C591.019287,493.977478 591.058350,493.898529 590.944641,493.250519 
	C590.269897,491.611267 589.604004,489.968292 588.918030,488.333771 
	C588.186096,486.589691 587.494080,484.825287 586.676208,483.121857 
	C585.844543,481.389648 584.797363,479.758606 584.006653,478.010010 
	C583.547913,476.995514 583.767883,475.284332 583.068970,474.829437 
	C577.000366,470.880310 574.781189,461.534821 565.001587,462.813293 
	C565.001587,459.735504 565.226746,457.248047 564.912598,454.830688 
	C564.739014,453.495148 563.661377,452.277069 563.000000,451.000000 
	C563.000000,451.000000 562.994141,451.008667 562.894714,450.294708 
	C561.862244,449.944427 560.829773,449.594116 559.903564,449.091827 
	C559.903564,449.091827 559.759583,449.208740 559.864746,448.491852 
	C557.972839,446.642578 556.080933,444.793304 554.066650,442.153351 
	C554.090576,441.088959 554.114502,440.024536 554.660767,438.438232 
	C555.247986,435.858459 555.540527,433.498260 550.844910,434.355652 
	C549.368530,434.343842 547.892090,434.332001 545.695374,434.112030 
	C544.812927,434.349243 543.930542,434.586487 542.387207,434.918488 
	C541.946472,434.869965 541.505798,434.821442 540.960754,434.208160 
	C540.386597,433.782898 539.812439,433.357666 539.104004,432.277100 
	C539.129761,431.833344 539.155518,431.389618 539.689209,430.401154 
	C541.010620,427.073547 537.617920,425.740265 536.916199,423.661560 
	C535.417114,419.220734 535.880859,414.122314 531.062439,411.255615 
	C533.049927,404.936279 526.743835,403.598022 524.168396,400.055511 
	C523.645447,399.336212 521.489075,399.033569 520.683533,399.522919 
	C519.978516,399.951233 520.113770,401.762634 519.971924,403.723694 
	C519.956421,404.488739 519.940979,405.253784 519.398987,406.470886 
	C517.657959,408.673492 514.639404,410.754883 514.416687,413.101562 
	C513.764404,419.975098 514.201111,426.954651 514.313599,433.890961 
	C514.320007,434.288757 515.240601,434.671692 515.884094,435.920410 
	C515.840942,437.951782 515.797791,439.983124 515.055054,442.092316 
	C510.319000,442.956360 508.371460,445.684052 508.957489,450.537720 
	C509.292542,453.312805 508.981903,456.162140 509.026184,458.977020 
	C509.079529,462.367523 510.280334,464.795715 514.055542,464.937897 
	C514.055542,464.937897 514.217834,464.815704 514.071899,465.710999 
	C512.906067,474.215271 519.024536,477.547180 525.127380,481.334137 
	C525.127380,481.334137 525.205139,481.689117 525.116516,482.422760 
	C526.647217,483.641785 528.177917,484.860809 529.850098,486.727539 
	C529.842651,487.168304 529.835205,487.609070 529.327148,488.571381 
	C528.592712,491.896515 528.931091,494.396393 533.865173,494.134979 
	C534.210144,495.099091 534.555054,496.063202 534.372559,497.537659 
	C534.867310,499.384094 535.362000,501.230499 535.932861,503.054840 
	C535.932861,503.054840 535.925354,503.133728 536.039978,503.800049 
	C537.084961,504.475037 538.130005,505.149994 538.997253,505.989685 
	C538.997253,505.989685 539.178833,505.831238 539.066650,506.619171 
	C540.378967,507.411713 541.691284,508.204285 543.000000,509.000000 
	C543.000000,509.000000 543.003113,508.996307 542.980469,509.768158 
	C544.288086,516.763733 549.703552,520.328125 558.097961,519.938843 
	C558.097961,519.938843 558.226379,519.806274 558.083252,520.576721 
	C560.807495,523.955750 561.478088,529.377075 567.076721,529.894897 
	C567.076721,529.894897 567.245300,529.798889 567.095154,530.584534 
	C567.037231,533.486450 568.650024,534.230469 571.066040,533.911011 
	C571.066040,533.911011 571.231018,533.798035 571.140198,534.565491 
	C572.528931,535.640930 573.917603,536.716431 575.663086,537.876343 
	C575.663086,537.876343 575.974731,538.069519 576.041504,538.773132 
	C578.332214,541.198853 580.622864,543.624573 582.990967,546.013733 
	C582.990967,546.013733 582.946533,546.086853 583.036499,546.781250 
	C585.372253,551.774292 589.246094,553.772949 594.714478,553.030945 
	C596.843689,552.742065 599.035583,552.915039 601.377319,553.173096 
	C601.377319,553.173096 601.392883,553.517822 601.198181,554.260315 
	C603.006714,555.872070 604.815308,557.483765 606.821106,559.602356 
	C606.860657,559.779297 606.900269,559.956177 607.129028,560.869751 
	C608.456116,561.248779 609.816345,561.541016 611.101013,562.031250 
	C612.371460,562.515991 613.712952,563.013062 614.762207,563.837158 
	C616.834717,565.464905 618.726990,567.322205 621.034912,569.739929 
	C622.369324,570.205139 623.703674,570.670288 625.624146,571.677063 
	C628.733032,571.792114 631.841980,571.907227 635.143555,572.535889 
	C635.185242,572.897888 635.226868,573.259888 635.101746,574.426514 
	C635.557495,578.322815 637.742737,577.278076 640.727051,576.033386 
	C641.494202,576.054871 642.261414,576.076294 643.458069,576.574890 
	C644.954773,574.841370 646.451416,573.107849 647.157471,572.290100 
	C649.789124,574.680054 652.218140,576.885925 654.846313,579.556152 
	C654.890564,579.718689 654.934875,579.881165 655.146667,580.812622 
	C657.823608,581.139954 660.500549,581.467285 663.050232,581.972656 
	C663.050232,581.972656 663.202637,581.815552 663.127747,582.601746 
	C663.714783,585.945801 665.660583,587.261719 669.065613,587.040588 
	C672.519287,586.816223 675.998535,586.986328 679.466614,586.985535 
	C689.322083,586.983215 689.322083,586.983582 689.009033,576.965027 
	C689.009033,576.965027 688.845642,576.835449 689.677856,576.976196 
	C690.440125,577.654968 691.700989,578.219360 691.887207,579.030396 
	C693.681702,586.847900 693.629822,586.914490 701.693665,586.944214 
	C704.327087,586.953918 706.138062,587.253906 707.456482,590.221558 
	C708.545471,592.672913 711.211182,593.369324 713.438599,589.926880 
	C713.937561,589.997620 714.436584,590.068359 715.038513,590.794861 
	C715.962158,591.932007 716.885803,593.069092 717.986267,594.864380 
	C719.984497,596.632141 721.982788,598.399902 724.806030,600.063904 
	C726.184509,600.110596 727.563049,600.157349 729.054443,600.880371 
	C731.997803,604.088318 734.855347,607.381409 737.919556,610.469482 
	C739.529236,612.091675 741.500610,613.355103 743.764343,615.073730 
	C744.246643,615.611389 744.729004,616.149048 745.123230,617.454834 
	C746.414429,618.303833 747.705627,619.152832 749.306519,620.359375 
	C749.522034,620.590271 749.752380,620.805237 749.980530,621.750732 
	C751.914185,624.393982 753.840637,627.042725 755.826721,629.645874 
	C755.872253,629.705566 756.592468,629.250488 757.856995,629.023193 
	C759.574219,629.076538 761.291443,629.129822 763.475159,629.647949 
	C766.221069,626.647461 768.966980,623.646912 771.848999,620.319641 
	C771.848999,620.319641 772.033264,620.014404 772.767151,620.026062 
	C774.179321,618.353821 775.591492,616.681580 777.337463,614.853333 
	C777.337463,614.853333 777.702454,614.802368 778.444458,614.887024 
	C782.019653,611.317505 785.594788,607.747986 789.784485,603.962891 
	C790.541626,602.699158 791.298767,601.435364 792.894592,600.032166 
	C794.596375,600.019226 796.298096,600.006226 798.388000,600.497192 
	C799.261353,599.802368 800.159180,599.135925 801.003479,598.407410 
	C803.561646,596.200195 805.791504,592.908020 808.733887,592.054871 
	C811.502258,591.252258 814.563721,592.230591 815.577820,588.312927 
	C815.720581,587.761108 816.941101,587.014160 817.519104,587.122681 
	C823.019470,588.155640 824.425903,584.129639 826.794006,580.219604 
	C827.502380,580.258179 828.210815,580.296753 829.122131,580.954407 
	C831.801453,583.640381 834.380859,586.439453 837.218872,588.945740 
	C838.113892,589.736145 839.701355,589.742432 841.733337,590.016113 
	C842.498108,590.046387 843.262817,590.076660 844.437744,590.594971 
	C845.287537,590.055481 846.137268,589.515991 847.053162,588.508484 
	C847.053162,588.508484 847.195190,588.057739 847.815857,587.920349 
	C848.138184,587.215820 848.460571,586.511353 848.910950,585.948303 
	C848.910950,585.948303 848.818909,585.781189 849.673157,585.929504 
	C851.769409,585.666748 853.865601,585.403992 856.798523,585.038086 
	C858.203125,585.039795 859.607788,585.041565 861.394775,585.512390 
	C862.184204,584.273743 862.973694,583.035095 863.868591,581.901062 
	C863.868591,581.901062 863.811890,581.763855 864.714722,581.921387 
	C867.263611,581.563293 871.574890,581.910461 872.050232,580.722595 
	C873.911133,576.072571 877.395386,577.044800 880.733704,576.998779 
	C884.394348,576.948303 888.065979,576.820496 891.714966,577.033142 
	C895.635498,577.261536 897.730591,575.750244 898.582825,571.570923 
	C900.396423,571.408997 902.210083,571.247131 904.436218,571.558960 
	C905.181519,570.563721 905.926819,569.568481 906.759521,568.043640 
	C907.089844,567.641052 907.420227,567.238403 908.487854,566.897095 
	C910.960693,563.904541 915.847961,562.846436 915.882385,557.907837 
	C915.882385,557.907837 915.813782,557.774231 916.761169,557.921265 
	C919.744995,557.930908 922.804199,558.342712 925.685120,557.803101 
	C927.488403,557.465271 929.023499,555.695251 930.705994,554.031494 
	C930.805542,553.688477 930.905090,553.345459 931.878113,553.017517 
	C934.500000,551.918579 939.243042,555.618408 939.822876,548.944580 
	C940.901428,547.970032 941.979980,546.995544 943.733643,545.918884 
	C944.085327,545.175415 944.437012,544.431885 944.993469,543.305237 
	C945.171509,543.067017 945.397583,542.890259 946.370789,542.856445 
	C946.921509,542.249451 947.472168,541.642517 947.999695,541.000000 
	C947.999695,541.000000 948.035217,541.022522 948.710632,540.922546 
M582.123230,456.700195 
	C582.749268,457.748566 583.269043,458.880737 584.018921,459.831390 
	C588.346069,465.316925 597.194336,467.546509 596.238953,476.857147 
	C596.197998,477.256134 596.589600,477.812714 596.935608,478.121155 
	C602.215088,482.827911 607.520630,487.505554 613.009644,492.871002 
	C615.279907,496.205017 617.095337,500.143646 622.383545,499.056061 
	C623.059692,498.917023 624.105469,499.852936 624.771912,500.503906 
	C629.974426,505.586151 633.547668,512.811584 642.218262,513.303894 
	C643.166565,513.357788 644.232056,514.880554 644.887390,515.941711 
	C647.469482,520.123108 649.488647,524.876160 655.865112,523.995300 
	C656.766846,523.870728 657.827942,524.932312 658.821472,525.432495 
	C660.462769,526.258911 662.086853,527.123962 663.757629,527.886353 
	C668.313904,529.965454 672.891785,531.997437 677.454834,534.061890 
	C677.581543,534.119141 677.692322,534.323181 677.718445,534.474670 
	C678.283081,537.750793 680.614502,537.915405 683.313416,537.993958 
	C684.636169,538.032532 685.936829,539.049866 687.235291,539.650574 
	C688.899292,540.420471 690.480591,541.625854 692.221069,541.924988 
	C697.383057,542.812256 700.426880,548.571350 706.220703,547.870300 
	C706.377380,547.851318 706.752258,548.362671 706.768066,548.641296 
	C707.061523,553.825500 710.902954,552.649475 714.092773,552.861023 
	C716.836731,553.042969 721.020447,552.582397 721.991028,554.078064 
	C724.050049,557.250732 726.465881,556.863586 729.191589,556.908691 
	C732.545654,556.964233 736.326660,555.877441 737.855591,560.549500 
	C738.057678,561.167053 739.536194,561.595093 740.471497,561.705627 
	C744.929199,562.232361 750.335510,560.208191 752.583618,566.453735 
	C752.676575,566.711975 753.495117,566.805847 753.977539,566.811523 
	C757.138611,566.848816 760.309143,566.973328 763.455994,566.762634 
	C764.344788,566.703064 765.720093,565.763306 765.923645,564.980591 
	C766.997498,560.850464 770.000854,560.902466 773.339050,560.877808 
	C775.490173,560.862000 778.928711,560.723206 779.538757,559.508606 
	C781.304260,555.993530 783.923340,555.947693 787.005615,555.974976 
	C789.317139,555.995483 793.102417,556.603210 793.695618,555.537720 
	C796.697754,550.145264 801.493530,552.595337 805.574890,551.913879 
	C806.870117,551.697632 808.522339,551.072754 809.190796,550.081665 
	C812.410522,545.307861 818.351135,544.181091 822.674377,542.518738 
	C827.391663,540.704834 831.264526,537.132385 836.658081,536.182617 
	C836.658081,536.182617 837.033691,536.094727 837.747559,535.930115 
	C839.232117,533.500977 840.697449,531.163269 844.248474,531.918396 
	C845.075073,532.094177 846.734558,531.627319 846.901611,531.102783 
	C848.063110,527.457031 850.921204,527.900757 853.742676,527.708130 
	C854.847778,527.632751 855.853638,526.457581 856.953552,525.875610 
	C858.858459,524.867798 860.743530,523.785706 862.740173,522.995544 
	C867.185364,521.236511 871.728149,519.719849 876.139526,517.884399 
	C876.779236,517.618225 876.707458,515.959839 877.320068,515.253845 
	C879.495728,512.746460 881.817322,508.320770 884.097656,508.312103 
	C892.790283,508.278961 895.897034,501.147247 900.838684,496.582672 
	C904.534241,493.169128 906.360474,487.407837 913.087341,488.863037 
	C913.741028,489.004425 914.972656,488.513916 915.269043,487.959900 
	C919.406738,480.225037 930.141907,477.034973 930.145142,466.377930 
	C930.145386,465.547882 931.944946,464.798279 932.750183,463.873627 
	C935.151978,461.115265 939.169556,458.446259 939.448364,455.452881 
	C939.915771,450.434814 943.265869,447.681885 945.888489,444.853149 
	C947.934814,442.645874 948.884949,440.954559 948.924805,438.190582 
	C948.955261,436.078766 948.695374,432.714844 949.805786,432.080444 
	C954.872559,429.185944 953.761230,425.184814 953.109314,420.805023 
	C952.629517,417.581787 952.779602,414.215027 953.070679,410.949860 
	C953.197754,409.524017 954.071777,407.362122 955.137024,406.967896 
	C958.836304,405.598846 958.895935,402.912720 958.857788,399.751648 
	C958.520874,371.788757 958.256348,343.824951 957.980286,315.861359 
	C957.949036,312.695801 958.083191,309.524597 957.929810,306.366272 
	C957.869812,305.130157 957.571045,303.182037 956.796143,302.824005 
	C952.442444,300.812286 952.963196,297.099945 952.963257,293.437012 
	C952.964539,233.118866 952.892151,172.800568 953.035950,112.482796 
	C953.047668,107.550751 951.384766,105.785118 946.702576,106.164566 
	C942.073120,106.539734 937.432312,106.948853 932.793030,106.995293 
	C920.630554,107.117065 908.466248,107.034149 896.302795,107.076591 
	C894.832642,107.081726 892.422607,106.861580 892.043091,107.583893 
	C889.105835,113.173912 883.717590,111.161354 879.320129,111.966362 
	C876.255371,112.527405 873.437927,112.107094 871.927185,108.518188 
	C871.557556,107.640213 869.450806,107.170319 868.107849,107.089012 
	C864.787415,106.888008 861.437073,107.170578 858.118591,106.953667 
	C856.550293,106.851151 854.016663,106.441208 853.651001,105.498932 
	C851.500793,99.958359 847.542053,101.432144 843.299072,101.809761 
	C840.160217,102.089127 835.864868,103.980537 833.882751,99.744728 
	C832.361938,96.494675 830.158813,96.001160 827.098877,96.116661 
	C824.979858,96.196625 821.455994,96.501648 820.948364,95.497993 
	C818.438965,90.536697 814.181335,92.479774 810.495422,91.975220 
	C808.765686,91.738449 806.007263,91.412636 805.608459,90.389267 
	C803.981628,86.215111 800.719910,87.256691 797.688110,87.044373 
	C795.457214,86.888145 791.868835,87.089165 791.281616,85.923660 
	C789.215576,81.823082 786.002258,81.953560 782.469177,82.113052 
	C779.316528,82.255371 776.220459,82.600426 774.748840,78.587669 
	C774.428406,77.713951 772.211853,77.132805 770.855652,77.107384 
	C762.360352,76.948128 753.861267,76.954727 745.363831,76.992523 
	C744.259277,76.997429 742.476379,77.170723 742.165039,77.820518 
	C740.263428,81.789566 736.806030,81.202164 733.539307,81.067062 
	C730.196899,80.928825 727.365234,81.080017 725.915649,85.013977 
	C725.516235,86.097916 723.004333,86.701393 721.371338,86.964668 
	C718.771973,87.383743 714.685486,86.312904 713.709106,87.664589 
	C710.313110,92.365524 705.823547,90.856926 701.570923,91.182686 
	C698.531006,91.415565 695.833679,92.119476 695.888123,96.530052 
	C695.604065,96.709747 695.320068,96.889435 694.121826,96.937012 
	C689.662964,97.479248 684.308655,94.787758 681.268555,100.649170 
	C680.960938,101.242271 679.118225,101.157677 677.983643,101.180710 
	C674.823669,101.244843 671.653137,101.065407 668.504028,101.260658 
	C667.131104,101.345772 665.073669,101.716988 664.575867,102.635292 
	C662.386414,106.673492 659.158020,105.925041 655.532349,105.683632 
	C652.197449,105.461578 647.109741,105.229500 645.805054,107.100914 
	C643.906860,109.823654 641.387878,110.834900 638.235962,112.387779 
	C634.155701,112.259781 630.075500,112.131790 626.016113,111.104126 
	C625.529968,102.098480 625.529968,102.107170 616.582520,102.107101 
	C601.251343,102.106995 585.920166,102.093567 570.588989,102.088234 
	C563.069092,102.085617 563.062073,102.088142 563.054077,109.375298 
	C563.035583,126.314926 563.007812,143.254562 563.013428,160.194183 
	C563.041260,244.515610 562.994690,328.837341 563.313721,413.157684 
	C563.333618,418.415253 566.238892,423.664001 567.832581,428.907501 
	C567.916199,429.182495 568.254089,429.498596 568.534912,429.577667 
	C573.056519,430.850525 572.095886,434.525513 572.146179,437.755035 
	C572.191284,440.653931 571.796753,443.210754 575.391418,445.154938 
	C578.263306,446.708191 580.023132,450.317566 582.124939,453.749695 
	C582.188660,454.492798 582.252441,455.235901 582.123230,456.700195 
z"/>
</svg>
